# xmcd CD database file
#
# Track frame offsets:
#	150
#	18219
#	31310
#	50846
#	65868
#	82120
#	91892
#	116579
#	131926
#	152609
#	163925
#	199277
#	215161
#	227810
#	240062
#	255137
#	276506
#	296364
#	322426
#
# Disc length: 4598 seconds
#
# Revision: 0
# Processed by: cddbd v1.5.2PL0 Copyright (c) Steve Scherf et al.
# Submitted via: CDex 1.81
#
DISCID=1f11f413
DTITLE=Jack Sels - Minor works
DYEAR=2018
DGENRE=Jazz
TTITLE0=Spanish lady
TTITLE1=Ginger
TTITLE2=Nick's kick
TTITLE3=Dorian 0437
TTITLE4=La campimania
TTITLE5=African dance
TTITLE6=Softly, as in a morning sunrise
TTITLE7=Blues for a blonde
TTITLE8=Blue triptichon
TTITLE9=Rain on the Grand' Place
TTITLE10=Nights in Tunisia
TTITLE11=Minor works
TTITLE12=Tchak-tchak
TTITLE13=Invitation
TTITLE14=Minor 5
TTITLE15=The preacher
TTITLE16=Dong
TTITLE17=Gemini
TTITLE18=It might as well be spring
EXTD=YEAR: 2018
EXTT0=
EXTT1=
EXTT2=
EXTT3=
EXTT4=
EXTT5=
EXTT6=
EXTT7=
EXTT8=
EXTT9=
EXTT10=
EXTT11=
EXTT12=
EXTT13=
EXTT14=
EXTT15=
EXTT16=
EXTT17=
EXTT18=
PLAYORDER=
